<?xml version="1.0" encoding="UTF-8"?>
<svg version="1.1" xmlns="http://www.w3.org/2000/svg" viewBox="0 0 1536 1024">
<path d="M0 0 C506.88 0 1013.76 0 1536 0 C1536 337.92 1536 675.84 1536 1024 C1029.12 1024 522.24 1024 0 1024 C0 686.08 0 348.16 0 0 Z " fill="#FAFAFA" transform="translate(0,0)"/>
<path d="M0 0 C2.30462178 0.00547558 4.60923316 0.00781978 6.91386032 0.00987244 C57.97301207 0.08035013 110.69681656 0.65528761 160.81672287 11.31785583 C161.95303146 11.55874939 163.08934006 11.79964294 164.26008224 12.0478363 C219.44324325 23.94880064 269.47012459 48.02523761 319.86359787 72.73973083 C359.81166343 92.32692741 397.53068975 103.03412569 441.41828537 109.84910583 C453.07310838 111.6597115 464.70731952 113.56166922 476.30939865 115.68797302 C478.72921417 116.12254939 481.15237524 116.53875952 483.57795334 116.93992615 C511.2673941 121.53776467 511.2673941 121.53776467 519.81672287 133.31785583 C520.55019943 134.26273865 521.28367599 135.20762146 522.03937912 136.18113708 C532.53313804 151.30391863 535.7180234 170.04439431 538.60041428 187.86204529 C540.53498597 199.33741058 543.82410204 209.63571848 549.94172287 219.56785583 C555.28168553 228.25308693 557.28278658 235.57730902 557.07453537 245.71629333 C557.06791885 246.67306976 557.06130234 247.62984619 557.05448532 248.61561584 C557.03126978 251.64170473 556.98756137 254.66703261 556.94172287 257.69285583 C556.90662076 260.74000744 556.87586768 263.78711869 556.85038376 266.83436584 C556.83344358 268.72308557 556.81033186 270.6117623 556.78037643 272.50032043 C556.77061783 273.3519577 556.76085922 274.20359497 556.7508049 275.08103943 C556.73953568 275.82888702 556.72826645 276.57673462 556.71665573 277.34724426 C556.73945753 279.5322414 556.73945753 279.5322414 557.81672287 282.31785583 C558.81974512 291.54566057 555.11341477 301.06824472 550.16047287 308.73191833 C541.16858617 319.34443578 517.8902889 319.6809615 505.05891037 321.92527771 C502.68618014 322.34071218 500.31394947 322.75893069 497.94172287 323.17723083 C473.63273581 327.45322799 449.27729567 331.39698335 424.87922287 335.13035583 C423.65139084 335.31908264 422.42355881 335.50780945 421.15851974 335.70225525 C405.07359775 338.16884739 388.97617519 340.39708065 372.81672287 342.31785583 C374.81672287 330.31785583 374.81672287 330.31785583 375.32014084 327.6950531 C380.36917726 300.27465721 377.19011451 272.05500187 361.32844162 248.77488708 C344.9197837 225.66328272 319.33786668 212.064102 291.81672287 207.31785583 C291.09355881 207.18637146 290.37039474 207.05488708 289.62531662 206.91941833 C263.48628366 202.88123788 236.31615701 210.93522741 214.97297287 225.94285583 C206.26101875 232.37787679 198.99983861 239.5007744 192.81672287 248.38035583 C192.29908371 249.12350037 191.78144455 249.8666449 191.24811935 250.63230896 C176.15343136 272.72048328 170.45834347 298.1536492 174.31184006 324.7328949 C175.39945626 330.35879034 176.77294865 335.89615872 178.35773849 341.40208435 C178.81672287 343.31785583 178.81672287 343.31785583 178.81672287 346.31785583 C173.35716395 349.73406487 168.79690221 349.74089078 162.5685997 349.69537926 C161.01604955 349.70191974 161.01604955 349.70191974 159.43213475 349.70859236 C155.94716188 349.71958257 152.46258184 349.70910874 148.97761154 349.69880676 C146.46057908 349.70226182 143.94354812 349.70702536 141.42652035 349.7129885 C135.94538641 349.72292307 130.46437366 349.72349136 124.98323822 349.71584702 C116.83269618 349.70451058 108.68222905 349.71029503 100.53168753 349.71947194 C85.97578233 349.73528037 71.41991659 349.73389553 56.86400762 349.7252352 C44.12602297 349.71769353 31.3880528 349.71571609 18.65006638 349.71930313 C17.38348385 349.71964686 17.38348385 349.71964686 16.0913138 349.71999754 C12.66381127 349.72093153 9.23630874 349.72188673 5.80880622 349.72287683 C-26.35484368 349.73205731 -58.51846842 349.72372794 -90.68211444 349.70758614 C-119.26812746 349.69334894 -147.85410039 349.69462281 -176.44011307 349.70896912 C-208.54430348 349.72502715 -240.64847165 349.73140628 -272.75266552 349.72213233 C-276.17398389 349.72117015 -279.59530226 349.72023163 -283.01662064 349.71930313 C-283.85905889 349.7190659 -284.70149714 349.71882867 -285.56946383 349.71858425 C-298.30057378 349.71516941 -311.03166769 349.71916716 -323.76277542 349.72674179 C-338.23617432 349.73531001 -352.70952751 349.73319552 -367.18292069 349.71689956 C-375.28679518 349.70807661 -383.39057074 349.7075359 -391.49444271 349.71883808 C-397.53742388 349.72633775 -403.58027605 349.71823088 -409.62324941 349.70391436 C-412.07403385 349.70055024 -414.52483147 349.70229695 -416.97560751 349.70954172 C-420.29564794 349.71860682 -423.61514248 349.70936559 -426.93515396 349.69537926 C-428.37691429 349.7059145 -428.37691429 349.7059145 -429.84780109 349.71666259 C-435.06828968 349.67242542 -438.62638255 349.16924084 -443.18327713 346.31785583 C-443.45732428 341.29365805 -443.15146883 336.85807603 -442.1085701 331.92527771 C-436.19374524 303.48522432 -441.03751065 274.97957976 -455.98845291 250.1181488 C-459.40768349 244.96624724 -463.82276121 240.66517806 -468.18327713 236.31785583 C-468.77753494 235.66430115 -469.37179276 235.01074646 -469.98405838 234.33738708 C-485.65758528 217.34152789 -510.47137872 207.56553067 -533.22185135 206.1950531 C-563.60858987 205.02304408 -591.31602699 215.15324196 -613.7648201 235.90989685 C-632.09885353 253.49517623 -642.03562173 277.5612396 -643.36687088 302.79832458 C-643.48303582 309.28306153 -643.18136417 315.63379615 -642.62468338 322.09129333 C-642.47241287 323.89110657 -642.47241287 323.89110657 -642.31706619 325.72727966 C-642.10622382 328.1245703 -641.87826485 330.52042975 -641.63151932 332.91429138 C-641.05771545 339.29301616 -640.79996776 343.75787191 -644.18327713 349.31785583 C-648.96811034 351.71027244 -655.96274074 350.56356702 -661.30827713 350.56785583 C-662.42772217 350.56886795 -662.42772217 350.56886795 -663.56978226 350.56990051 C-676.96756683 350.55069389 -689.9606627 349.57058155 -703.18327713 347.31785583 C-704.27285721 347.13561462 -705.36243729 346.95337341 -706.48503494 346.76560974 C-745.70552978 340.07229176 -745.70552978 340.07229176 -755.74577713 328.31785583 C-757.420248 324.82330792 -757.79551233 323.14432584 -757.18327713 319.31785583 C-756.51940994 318.17703552 -755.85554276 317.03621521 -755.17155838 315.86082458 C-752.4327919 310.51295186 -752.70455459 305.3970216 -752.87077713 299.50535583 C-752.88527908 297.98071716 -752.88527908 297.98071716 -752.90007401 296.42527771 C-752.97207624 291.51347314 -753.22304148 286.6882913 -753.76530838 281.80613708 C-754.23318722 277.0565983 -753.94145999 272.66189479 -753.46355057 267.92478943 C-753.11144893 263.3934745 -753.03430568 258.88065353 -752.97233963 254.33738708 C-752.9581398 253.43334137 -752.94393997 252.52929565 -752.92930984 251.59785461 C-752.87145408 247.83620091 -752.81711397 244.07466984 -752.78190994 240.31272888 C-752.58298496 220.63458931 -752.29240643 198.25524981 -737.39421463 183.55223083 C-687.50497893 140.7900288 -580.94817401 139.10895227 -519.17789078 132.43630981 C-512.58804182 131.71653617 -506.00886635 130.93121368 -499.43120575 130.10760117 C-480.99155752 127.80058601 -462.54451881 125.99183638 -444.02721024 124.43669128 C-426.85895004 122.99300441 -409.69354927 121.53894539 -392.55827713 119.73973083 C-391.41698853 119.62213913 -390.27569992 119.50454742 -389.09982681 119.38339233 C-365.80789346 116.87185317 -347.31757965 105.40223311 -327.60261917 93.55018616 C-316.57929832 86.94061339 -305.36710817 80.65032719 -294.18327713 74.31785583 C-293.35602127 73.84686462 -292.52876541 73.37587341 -291.67644119 72.89060974 C-213.50070035 28.40659819 -135.47386337 6.27228974 0 0 Z " fill="#080808" transform="translate(878.183277130127,307.68214416503906)"/>
<path d="M0 0 C1.4682107 0.12543589 2.93647471 0.25024891 4.40478516 0.37451172 C78.04457398 6.69345522 161.07568903 25.53980445 212 84 C214.49872051 87.23720876 216.78666292 90.5628866 219 94 C219.9590625 95.3921875 219.9590625 95.3921875 220.9375 96.8125 C222.68634708 102.05904124 222.40772744 107.51920231 222 113 C219.88273496 115.11726504 215.09585104 114.150516 212.16784668 114.15148926 C210.75915353 114.15783787 210.75915353 114.15783787 209.32200193 114.16431475 C206.14630709 114.17742165 202.97063742 114.1833853 199.79492188 114.18945312 C197.52588242 114.1973925 195.25684449 114.20578021 192.98780823 114.21458435 C188.07480819 114.23271245 183.16181171 114.24770615 178.24879456 114.26036072 C170.4092908 114.28065627 162.56982349 114.30832359 154.73034668 114.33703613 C143.66317624 114.3769996 132.59599885 114.41372968 121.52880859 114.44775391 C120.82568611 114.44991671 120.12256363 114.45207951 119.39813441 114.45430785 C116.55545607 114.46304322 113.71277767 114.47176186 110.87009922 114.48046073 C86.92379497 114.5537603 62.97750565 114.63089091 39.03125 114.71875 C38.37073198 114.72116463 37.71021397 114.72357926 37.02968025 114.72606707 C-12.0097265 114.90579185 -61.02916486 115.29568996 -110.05282593 116.62487793 C-124.36957135 117.00951857 -138.6879936 117.25987809 -153.0078125 117.5 C-154.23205681 117.520625 -155.45630112 117.54125 -156.71764374 117.5625 C-168.07863245 117.75348761 -179.43969316 117.94002895 -190.80078125 118.125 C-225.00825662 118.63805158 -225.00825662 118.63805158 -259.20425415 119.62046814 C-275.38937581 120.21603588 -291.58191084 120.55855749 -307.7734375 120.92993164 C-311.57689351 121.01736089 -315.38026626 121.10758957 -319.18359375 121.20043945 C-344.79411241 121.82483597 -370.38176907 122.13699363 -396 122 C-393.20848784 116.07381533 -388.33773974 111.89566637 -383.75 107.3125 C-383.24869568 106.81112518 -382.74739136 106.30975037 -382.230896 105.79318237 C-375.32536159 98.92501766 -368.6422332 92.94323633 -360.05957031 88.18652344 C-357.51799961 86.72231841 -355.05668922 85.15108504 -352.5859375 83.5703125 C-331.89715809 70.34125885 -310.33598393 59.05459859 -288.51220703 47.83251953 C-285.99538522 46.51934947 -283.49384328 45.18987208 -280.99951172 43.83544922 C-271.12631676 38.48989244 -261.12788744 33.78063463 -250.75 29.5 C-249.97952332 29.18017151 -249.20904663 28.86034302 -248.41522217 28.53082275 C-209.06246501 12.25998095 -167.87209884 3.99001309 -125.52441406 0.30859375 C-123.27017286 0.11121491 -121.01677007 -0.0961565 -118.76464844 -0.31640625 C-79.64287947 -4.11440287 -39.12744323 -3.54639711 0 0 Z " fill="#080808" transform="translate(925,327)"/>
<path d="M0 0 C15.31068696 12.04044314 25.73185139 27.11534194 31.06640625 45.83984375 C31.25187012 46.46568359 31.43733398 47.09152344 31.62841797 47.73632812 C33.52674465 54.95299608 33.36064894 62.17181899 33.31640625 69.58984375 C33.32414062 70.87117187 33.331875 72.1525 33.33984375 73.47265625 C33.28957929 98.25303569 26.53406546 117.92352891 9.06640625 135.83984375 C8.33421875 136.62230469 7.60203125 137.40476562 6.84765625 138.2109375 C-11.25256231 157.10782061 -35.06157879 165.45279828 -60.9206543 166.12524414 C-87.38661476 166.41793335 -108.48127033 155.63302765 -127.49609375 137.65234375 C-146.06711799 118.51654775 -155.38907364 93.6303439 -155.30200195 67.01220703 C-154.56650491 41.98129123 -141.58284261 20.15297937 -123.82421875 3.29296875 C-89.24483655 -28.20202852 -36.6802091 -27.00952814 0 0 Z " fill="#080808" transform="translate(1213.93359375,542.16015625)"/>
<path d="M0 0 C20.00910781 15.44667339 32.05837201 36.52248252 37.0625 61.0625 C37.35060547 62.22265625 37.35060547 62.22265625 37.64453125 63.40625 C40.46406892 81.32480718 37.56859284 100.67383885 30.0625 117.0625 C29.64355469 117.98289062 29.22460938 118.90328125 28.79296875 119.8515625 C24.75421228 127.92907545 19.07052318 134.40759527 13.0625 141.0625 C12.47726562 141.73152344 11.89203125 142.40054688 11.2890625 143.08984375 C-0.71108897 156.03416957 -17.03747632 163.97029403 -33.9375 168.0625 C-34.82824219 168.289375 -35.71898437 168.51625 -36.63671875 168.75 C-59.66019226 173.82715189 -85.17345055 168.3327536 -105.06640625 156.10546875 C-110.489649 152.24648105 -115.18415282 147.70361537 -119.9375 143.0625 C-121.1440625 141.96615234 -121.1440625 141.96615234 -122.375 140.84765625 C-135.59923278 128.51881423 -142.46379102 112.27750758 -146.9375 95.0625 C-147.114021 94.4658252 -147.29054199 93.86915039 -147.47241211 93.25439453 C-152.09641339 71.46211971 -147.25655818 47.00823005 -135.9375 28.0625 C-132.62389563 23.09331168 -128.86695277 18.55245135 -124.9375 14.0625 C-124.36644531 13.39089844 -123.79539062 12.71929688 -123.20703125 12.02734375 C-109.50616196 -2.87103082 -91.35062208 -10.86205902 -71.9375 -14.9375 C-71.15995361 -15.1125708 -70.38240723 -15.2876416 -69.58129883 -15.46801758 C-44.76748136 -19.87442362 -20.43181343 -14.21713685 0 0 Z " fill="#080808" transform="translate(391.9375,537.9375)"/>
<path d="M0 0 C12.65328269 -0.19493853 25.17991672 0.30075819 37.80273438 1.171875 C40.73267088 1.37380568 43.66309937 1.56655518 46.59375 1.7578125 C83.38057923 4.19640043 83.38057923 4.19640043 100 7.1875 C101.79244141 7.50460937 101.79244141 7.50460937 103.62109375 7.828125 C112.79774291 9.49921096 121.90817401 11.42281493 131 13.5 C132.20914063 13.77223389 133.41828125 14.04446777 134.6640625 14.32495117 C142.73933033 16.2301817 150.33288123 18.83508469 158 22 C158.40879705 35.17234924 157.7315888 48.1373076 156.5625 61.25 C156.49501556 62.02172546 156.42753113 62.79345093 156.35800171 63.58856201 C155.18895461 76.81104539 155.18895461 76.81104539 154 78 C152.3121955 78.09838731 150.62025028 78.12632024 148.92958069 78.12698364 C147.28001373 78.13121338 147.28001373 78.13121338 145.59712219 78.13552856 C143.77026131 78.13249222 143.77026131 78.13249222 141.90649414 78.12939453 C140.6313797 78.13114685 139.35626526 78.13289917 138.04251099 78.13470459 C134.52646422 78.13928586 131.01044663 78.13748355 127.49439931 78.1343255 C123.79496638 78.13179194 120.09553594 78.13414348 116.39610291 78.13571167 C110.15558426 78.13753614 103.9150774 78.13512576 97.67456055 78.13037109 C90.52743469 78.12498744 83.38033762 78.12664635 76.23321253 78.1321975 C70.0638324 78.13679278 63.89446077 78.13734661 57.72507948 78.13475883 C54.05667017 78.13322305 50.38827417 78.13292474 46.7198658 78.13629532 C28.7925878 78.15057432 10.90947869 77.85515969 -7 77 C-6.84819228 75.10894063 -6.69470425 73.21801612 -6.54052734 71.32714844 C-6.45523773 70.27412537 -6.36994812 69.22110229 -6.28207397 68.13616943 C-5.94933893 64.43673742 -5.48362674 60.76543598 -4.99731445 57.08374023 C-2.50741145 38.13272111 -1.32561918 19.06021571 0 0 Z " fill="#F7F7F7" transform="translate(859,350)"/>
<path d="M0 0 C10.28536938 7.5046858 16.84055452 18.55419176 21.35546875 30.29296875 C21.67386719 31.05480469 21.99226563 31.81664062 22.3203125 32.6015625 C27.26613527 46.11710584 24.67243182 60.38635654 19.35546875 73.29296875 C10.90470243 91.00387056 -4.87035933 102.25304419 -22.74609375 109.09765625 C-35.84603534 113.16699981 -50.62040029 109.82548808 -62.70703125 104.29296875 C-75.74400648 97.39018765 -87.19067129 86.08011844 -92.08203125 71.98046875 C-94.32218784 64.61708407 -94.82659302 57.68911449 -94.83203125 50.04296875 C-94.84427734 49.15222656 -94.85652344 48.26148438 -94.86914062 47.34375 C-94.88960994 37.94151322 -93.40707842 29.67604577 -89.08203125 21.29296875 C-88.73124512 20.60726807 -88.38045898 19.92156738 -88.01904297 19.21508789 C-80.54444008 5.18245406 -68.60587305 -3.74415602 -53.64453125 -8.70703125 C-34.05310366 -14.06187809 -17.09691513 -11.03597033 0 0 Z " fill="#F7F8F8" transform="translate(1190.64453125,564.70703125)"/>
<path d="M0 0 C14.1972398 10.88093798 23.33244809 25.36874298 26.37109375 43.1484375 C27.96184662 60.61295311 24.905762 75.61858378 14.30078125 89.9453125 C4.95159988 101.00348402 -9.29306802 108.62021797 -23.62890625 111.1484375 C-40.28166167 112.25619986 -56.86299917 109.72624877 -70.24365234 98.83398438 C-81.67573441 88.78729515 -88.10257975 78.03105203 -91.62890625 63.1484375 C-91.82097656 62.47167969 -92.01304687 61.79492188 -92.2109375 61.09765625 C-95.24789111 46.93466698 -90.27783312 30.08076342 -82.62890625 18.1484375 C-79.85558708 14.55882061 -76.85038737 11.3374876 -73.62890625 8.1484375 C-72.63117188 7.10042969 -72.63117188 7.10042969 -71.61328125 6.03125 C-51.66189634 -13.53938329 -22.62026337 -15.93165652 0 0 Z " fill="#F7F7F7" transform="translate(369.62890625,563.8515625)"/>
<path d="M0 0 C1.4682107 0.12543589 2.93647471 0.25024891 4.40478516 0.37451172 C78.04457398 6.69345522 161.07568903 25.53980445 212 84 C214.49872051 87.23720876 216.78666292 90.5628866 219 94 C219.9590625 95.3921875 219.9590625 95.3921875 220.9375 96.8125 C222.68634708 102.05904124 222.40772744 107.51920231 222 113 C219.88273496 115.11726504 215.09585104 114.150516 212.16784668 114.15148926 C210.75915353 114.15783787 210.75915353 114.15783787 209.32200193 114.16431475 C206.14630709 114.17742165 202.97063742 114.1833853 199.79492188 114.18945312 C197.52588242 114.1973925 195.25684449 114.20578021 192.98780823 114.21458435 C188.07480819 114.23271245 183.16181171 114.24770615 178.24879456 114.26036072 C170.4092908 114.28065627 162.56982349 114.30832359 154.73034668 114.33703613 C143.66317624 114.3769996 132.59599885 114.41372968 121.52880859 114.44775391 C120.82568611 114.44991671 120.12256363 114.45207951 119.39813441 114.45430785 C116.55545607 114.46304322 113.71277767 114.47176186 110.87009922 114.48046073 C86.92379497 114.5537603 62.97750565 114.63089091 39.03125 114.71875 C38.37073198 114.72116463 37.71021397 114.72357926 37.02968025 114.72606707 C-12.0097265 114.90579185 -61.02916486 115.29568996 -110.05282593 116.62487793 C-124.36957135 117.00951857 -138.6879936 117.25987809 -153.0078125 117.5 C-154.23205681 117.520625 -155.45630112 117.54125 -156.71764374 117.5625 C-168.07863245 117.75348761 -179.43969316 117.94002895 -190.80078125 118.125 C-225.00825662 118.63805158 -225.00825662 118.63805158 -259.20425415 119.62046814 C-275.38937581 120.21603588 -291.58191084 120.55855749 -307.7734375 120.92993164 C-311.57689351 121.01736089 -315.38026626 121.10758957 -319.18359375 121.20043945 C-344.79411241 121.82483597 -370.38176907 122.13699363 -396 122 C-393.20848784 116.07381533 -388.33773974 111.89566637 -383.75 107.3125 C-383.24869568 106.81112518 -382.74739136 106.30975037 -382.230896 105.79318237 C-375.32536159 98.92501766 -368.6422332 92.94323633 -360.05957031 88.18652344 C-357.51799961 86.72231841 -355.05668922 85.15108504 -352.5859375 83.5703125 C-331.89715809 70.34125885 -310.33598393 59.05459859 -288.51220703 47.83251953 C-285.99538522 46.51934947 -283.49384328 45.18987208 -280.99951172 43.83544922 C-271.12631676 38.48989244 -261.12788744 33.78063463 -250.75 29.5 C-249.97952332 29.18017151 -249.20904663 28.86034302 -248.41522217 28.53082275 C-209.06246501 12.25998095 -167.87209884 3.99001309 -125.52441406 0.30859375 C-123.27017286 0.11121491 -121.01677007 -0.0961565 -118.76464844 -0.31640625 C-79.64287947 -4.11440287 -39.12744323 -3.54639711 0 0 Z M-135.25 9.75 C-135.99612549 9.83780731 -136.74225098 9.92561462 -137.51098633 10.01608276 C-172.68819158 14.19678975 -210.58391872 21.30399265 -243 36 C-244.06734375 36.47743652 -245.1346875 36.95487305 -246.234375 37.44677734 C-274.09792907 49.98614384 -301.68573995 63.45160153 -328 79 C-328.77375977 79.45648926 -329.54751953 79.91297852 -330.34472656 80.38330078 C-339.72451703 85.94988781 -348.90802669 91.82179209 -358.0625 97.75 C-359.01447266 98.36407715 -359.96644531 98.9781543 -360.94726562 99.61083984 C-371.79460465 105.73928159 -371.79460465 105.73928159 -379 115 C-360.07095265 115.19986373 -360.07095265 115.19986373 -341.1640625 114.4140625 C-340.26237335 114.35296295 -339.3606842 114.2918634 -338.43167114 114.22891235 C-336.51516942 114.09730522 -334.59871767 113.96496884 -332.68231201 113.83197021 C-298.30624025 111.50482044 -263.84864349 111.23786819 -229.40919495 110.70276642 C-225.85874421 110.64759265 -222.30830908 110.59148088 -218.75787354 110.53533936 C-214.36953916 110.46610757 -209.98117665 110.40199476 -205.5927124 110.34161377 C-196.3830848 110.20651125 -187.19496158 109.99878852 -177.99707031 109.50634766 C-164.47147242 108.79624871 -150.93276993 108.665903 -137.39190722 108.49762535 C-135.0406508 108.46818292 -132.68941369 108.43746413 -130.33817673 108.4065094 C-81.51431946 107.76950944 -32.685254 107.66171321 16.14190674 107.47393799 C28.37381033 107.42681163 40.60569852 107.37760484 52.83756888 107.32245111 C58.04083971 107.29917214 63.24410441 107.2775669 68.44739914 107.26036072 C89.38120076 107.19066796 110.26535868 106.97896776 131.1829567 106.10751724 C138.13485559 105.84218621 145.09087796 105.76709077 152.046875 105.68359375 C153.57627728 105.66287231 155.10567582 105.64187396 156.6350708 105.62062073 C160.54733126 105.5669586 164.4596286 105.51690329 168.37194824 105.46777344 C172.40945484 105.41637455 176.44691179 105.36132443 180.484375 105.30664062 C188.32287396 105.20098382 196.16141588 105.09916188 204 105 C202.92463756 102.77779859 201.84157844 100.55991854 200.75390625 98.34375 C200.45407837 97.72209961 200.15425049 97.10044922 199.84533691 96.45996094 C196.75633358 90.19563481 192.73369799 85.12935036 188 80 C187.51176758 79.46407227 187.02353516 78.92814453 186.52050781 78.37597656 C172.17928176 62.79000677 155.28209369 51.92285447 136.52929688 42.29882812 C134.33602004 41.17255083 132.15995044 40.01923836 129.984375 38.859375 C108.74297053 27.89368476 84.19053556 21.29228658 60.88183594 16.58349609 C58.22988118 16.0465449 55.58822131 15.47400651 52.9453125 14.89453125 C37.01083427 11.56293298 20.75025975 10.31959437 4.5625 8.83203125 C3.80775894 8.76241684 3.05301788 8.69280243 2.27540588 8.62107849 C-0.14894122 8.40351995 -2.57416841 8.20032805 -5 8 C-6.02246826 7.91109497 -7.04493652 7.82218994 -8.09838867 7.73059082 C-17.55928224 6.96945126 -26.9542254 6.85324923 -36.4375 6.8671875 C-38.09114598 6.86651093 -39.74479186 6.865538 -41.3984375 6.86428833 C-44.84750322 6.86282463 -48.29654282 6.86492055 -51.74560547 6.86962891 C-56.09781609 6.87529019 -60.44996516 6.87195799 -64.80217361 6.86620331 C-88.37360642 6.83947291 -111.8122255 6.95698283 -135.25 9.75 Z " fill="#F6F6F6" transform="translate(925,327)"/>
<path d="M0 0 C1 1 1 1 1.04150391 2.90844727 C0.3820005 11.92024769 -2.08302947 20.31966719 -4.625 28.9375 C-5.07900122 30.50020237 -5.53285769 32.0629468 -5.98657227 33.62573242 C-12.33965252 55.35740512 -12.33965252 55.35740512 -16.30419922 65.19775391 C-17.12984199 67.24528436 -17.12984199 67.24528436 -17.94140625 70.44921875 C-20 73 -20 73 -22.37888241 73.45094967 C-23.35398046 73.50983144 -24.3290785 73.56871321 -25.33372498 73.62937927 C-26.95878873 73.73216092 -26.95878873 73.73216092 -28.61668205 73.83701897 C-33.98360797 74.09555427 -39.34824722 74.31780196 -44.71899414 74.48071289 C-45.92893036 74.5198732 -47.13886658 74.55903351 -48.38546753 74.59938049 C-51.66891801 74.70494772 -54.95243919 74.80776469 -58.23602223 74.90911031 C-61.70383037 75.01665092 -65.17154017 75.12728507 -68.63926697 75.2374115 C-74.46671856 75.4219732 -80.29424664 75.60395014 -86.12182617 75.78442383 C-92.80761623 75.99151256 -99.49325793 76.20295386 -106.17883784 76.41671187 C-112.66496641 76.62396462 -119.15119895 76.82778384 -125.63747978 77.03021049 C-128.37103399 77.115593 -131.10454641 77.20216382 -133.83802986 77.28978157 C-148.56335572 77.75904757 -163.26658191 78.13901959 -178 78 C-178.24819174 77.43437473 -178.49638348 76.86874947 -178.75209618 76.28598404 C-179.07805086 75.54355328 -179.40400555 74.80112251 -179.73983765 74.03619385 C-180.22427369 72.93252157 -180.22427369 72.93252157 -180.71849632 71.80655289 C-181.40101415 70.25814879 -182.09220169 68.71356181 -182.78759766 67.17089844 C-183.07683105 66.4905957 -183.36606445 65.81029297 -183.6640625 65.109375 C-183.96779785 64.41811523 -184.2715332 63.72685547 -184.58447266 63.01464844 C-185.13443482 60.3482044 -184.43782444 59.2556449 -183 57 C-173.86813318 46.93337516 -160.40515584 41.05734299 -148.5625 34.875 C-147.44383545 34.28904053 -146.3251709 33.70308105 -145.17260742 33.09936523 C-132.73267428 26.67895892 -120.03133606 21.41387569 -106.75 17 C-106.10825836 16.78655945 -105.46651672 16.5731189 -104.80532837 16.35321045 C-71.78391083 5.43724907 -34.94449157 -1.95144563 0 0 Z " fill="#F7F7F7" transform="translate(811,354)"/>
<path d="M0 0 C2.13486215 0.00319627 4.26838046 -0.02052875 6.40307617 -0.0456543 C7.78393383 -0.04792487 9.16479515 -0.04863191 10.5456543 -0.04760742 C11.77324463 -0.05058838 13.00083496 -0.05356934 14.265625 -0.05664062 C18.38622242 0.37652344 21.10064503 1.51801323 24.80737305 3.31567383 C21.16341598 15.02112249 2.61412846 22.56533008 -7.46557617 27.93041992 C-22.53319946 35.58428693 -42.83727636 44.6344104 -60.00512695 44.37817383 C-60.79532227 44.36915039 -61.58551758 44.36012695 -62.3996582 44.35083008 C-62.99133789 44.33922852 -63.58301758 44.32762695 -64.19262695 44.31567383 C-66.6098151 38.92185834 -66.59578309 34.14649823 -66.63012695 28.31567383 C-66.66299805 27.33083008 -66.69586914 26.34598633 -66.72973633 25.33129883 C-66.76280919 20.88149536 -66.73096958 18.15186996 -64.28637695 14.35473633 C-60.14068885 11.62235099 -55.97871827 10.15220707 -51.25512695 8.69067383 C-50.31870361 8.3907251 -49.38228027 8.09077637 -48.41748047 7.78173828 C-41.08332226 5.48024529 -33.77157188 3.62822854 -26.19262695 2.31567383 C-25.36883545 2.14865967 -24.54504395 1.98164551 -23.69628906 1.80957031 C-15.78411261 0.30583518 -8.02412809 -0.02513066 0 0 Z " fill="#FAFAFA" transform="translate(220.192626953125,492.684326171875)"/>
<path d="M0 0 C5.70598202 0.58451523 10.40672656 2.70483721 15.5625 5.0625 C16.891604 5.66759399 16.891604 5.66759399 18.24755859 6.28491211 C28.59018664 11.08395921 38.12001671 16.74534865 46.83203125 24.1640625 C48.89974387 25.99181585 48.89974387 25.99181585 50.94921875 27.2734375 C53.00285389 28.77656439 53.91141454 29.67223425 55 32 C55.54594086 37.38913901 55.4912538 42.60864496 55 48 C54 49 54 49 51.71580505 49.12025452 C50.70542679 49.11803391 49.69504852 49.11581329 48.65405273 49.11352539 C47.5129454 49.11344986 46.37183807 49.11337433 45.19615173 49.11329651 C43.9545076 49.10813522 42.71286346 49.10297394 41.43359375 49.09765625 C39.53795433 49.09553383 39.53795433 49.09553383 37.60401917 49.09336853 C34.23875111 49.08870582 30.8735501 49.0797148 27.50830078 49.06866455 C24.0765033 49.05844846 20.64469891 49.05387049 17.21289062 49.04882812 C10.47524176 49.0377738 3.73762475 49.0210171 -3 49 C-2.94268707 48.41145233 -2.88537415 47.82290466 -2.82632446 47.21652222 C-1.69733569 35.5179192 -0.70448978 23.87680215 -0.375 12.125 C-0.33632812 10.93648438 -0.29765625 9.74796875 -0.2578125 8.5234375 C-0.16616665 5.6824163 -0.08013938 2.84136467 0 0 Z " fill="#F7F7F7" transform="translate(1030,377)"/>
<path d="M0 0 C8.27623807 22.11358473 8.27623807 22.11358473 8 32 C0.08317644 31.34279243 -7.44122393 29.19929081 -15.0625 27.0625 C-15.7660965 26.86602875 -16.46969299 26.6695575 -17.1946106 26.46713257 C-26.68473838 23.79180934 -35.88551142 20.76181151 -44.9375 16.8125 C-45.83412354 16.4213501 -46.73074707 16.0302002 -47.65454102 15.62719727 C-53.39661808 13.00282658 -59.11769106 10.04681783 -64 6 C-64 5.34 -64 4.68 -64 4 C-43.96465781 -4.42302141 -21.11804121 -3.43283108 0 0 Z " fill="#F9F9F9" transform="translate(1402,467)"/>
</svg>
