<svg xmlns="http://www.w3.org/2000/svg" xmlns:xlink="http://www.w3.org/1999/xlink" width="175" height="14.703" viewBox="0 0 175 14.703"><defs><style>.a{fill:none;}.b{clip-path:url(#a);}.c{fill:#000;}</style><clipPath id="a"><rect class="a" width="175" height="14.703"/></clipPath></defs><g transform="translate(0 0)"><g class="b"><path class="c" d="M480.579,18.165l3.453-9.353h-5.254l-3.607,9.746c-.513,1.344-4.975,1.263-4.975,1.263-3.633,0-3.079-1.342-3.079-1.342l3.488-9.67h-5.2L461.747,18.8c-1.184,3.238,8.054,3.156,8.054,3.156,9.975,0,10.779-3.787,10.779-3.787" transform="translate(-380.334 -7.258)"/><path class="c" d="M5.013,18.142l2.17-5.921c.513-1.306,3.4-1.361,3.4-1.361l8.764.015.751-2.053H10.146c-7.068,0-7.781,3.712-7.781,3.712L.195,18.377c-1.46,3.951,5.776,3.587,5.776,3.587h9.406l.759-2.046H7.38c-2.844,0-2.367-1.776-2.367-1.776" transform="translate(0 -7.269)"/><path class="c" d="M232.766,8.824l-6.421,6.571L224.86,8.824h-6.83l-4.881,13.14h5.276L222,12.456l1.4,8.055h3.122l7.43-8.134-3.54,9.587h5.363l4.9-13.14Z" transform="translate(-175.608 -7.27)"/><path class="c" d="M124.045,12.626a2.668,2.668,0,0,0,.2-1.3c-.435-2.684-6.436-2.485-6.436-2.485h-4.815c-6.539,0-8.174,3.669-8.174,3.669l-2.1,5.675a2.369,2.369,0,0,0-.119.513,4.775,4.775,0,0,0,0,.634c.435,2.446,5.843,2.646,5.843,2.646h5.094c7.7-.038,8.568-4.029,8.568-4.029Zm-5.014.2-2.02,5.436s-.369,1.5-3.474,1.577c-.079,0-.158,0-.237,0h-3.278s-2.762.2-2.053-1.7l2.02-5.435s.593-1.66,3.474-1.736h3.119s3.157-.122,2.448,1.854" transform="translate(-84.52 -7.277)"/><path class="c" d="M370.793,12.559a3.111,3.111,0,0,0,.2-.789V11.3c-.314-2.685-5.8-2.487-5.8-2.487H354.7l-4.887,13.14h5.371l1.709-4.534h4.974c8.49-.119,8.923-4.857,8.923-4.857m-4.778-.235-.474,1.3s-.354,1.539-3.671,1.617h-4.184l1.579-4.264h4.383s2.88-.119,2.367,1.343" transform="translate(-288.203 -7.255)"/><path class="c" d="M593.233,10.958l2.18-2.134H565.042s-5.675.046-6.816,3.155c0,0-1.43,2.672,1.928,3.314l2.983.621,3.066.5s2.756.207,2.239,1.556c0,0,.058,1.345-3.114,1.345H554.633a7.035,7.035,0,0,1-3.836,2.651H563.78s9.029.208,9.861-3.956c0,0,1.243-3.087-4.5-3.771l-3.439-.621s-2.835-.411-2.425-1.514c0,0,.371-1.144,2.757-1.144h13.971l-4.061,11.007h5.531l4.082-11.007Z" transform="translate(-453.787 -7.27)"/><path class="c" d="M817.89,5.018s.828.748,4.266-.288l-.738-3.176-2.942.02h-.035c-.206,0-.409-.008-.612-.021a7.616,7.616,0,0,1-.927-.1,2.729,2.729,0,0,1-.4-.1c-.052-.02-.1-.042-.154-.066a1.945,1.945,0,0,1-.281-.15,1.2,1.2,0,0,1-.193-.179A5.434,5.434,0,0,1,815.019,0s1.316,4.233,2.871,5.018" transform="translate(-671.472 0)"/><path class="c" d="M754.022,48.2s-2.465-.663-9.012,1.181l-4.745,4.929h6.173l2.342-2.422s2.362-2.072,4.475-2.072c0,0,2.114-.021,3.356,3.046,0,0-.808-4.5-2.589-4.662" transform="translate(-609.883 -39.611)"/><path class="c" d="M760.329,16a6.857,6.857,0,0,1-2.423,1.327s8.724-2.571,9.53-3.667c0,0,1.1-.913.1-4.33l-4.993,4.889s-1.72,1.45-2.219,1.782" transform="translate(-624.418 -7.689)"/><path class="c" d="M838.71,29.3a4.413,4.413,0,0,1,1.578-1.262s-5.327,1.409-6.216,2.631c-.975,1.346,1.034,7.126,1.034,7.126h5.355l-1.665-6.069s-.519-1.947-.085-2.426" transform="translate(-686.948 -23.097)"/><path class="c" d="M889.484,8.83l-11.477-.007-4.95,13.14h5.57l1.927-5.3,2.158-5.724,4.223.028s2.758.267,2.073,2.113c0,0-.849,1.739-4.7,1.658a8.546,8.546,0,0,1,1.534,3.272l.38,3.954h5.472l-.588-4.327c-.353-1.6-1.244-1.761-1.244-1.761a4.183,4.183,0,0,0,4.331-3.356c.91-4.021-4.7-3.69-4.7-3.69" transform="translate(-719.288 -7.27)"/></g></g></svg>
