<svg xmlns="http://www.w3.org/2000/svg" xmlns:xlink="http://www.w3.org/1999/xlink" width="172" height="35" viewBox="0 0 172 35">
	<g>
		<path fill="#000" d="M8.19,14.75l15.29,0l-0.76,5.49l-15.29,0l-1.18,8.52l16.62,0l-0.76,5.49L0,34.26L4.69,0.69l22.11,0    l-0.76,5.49l-16.62,0L8.19,14.75z"></path>
		<path fill="#000" d="M41.19,14.33c5.68,1.09,11.93,3.22,10.37,11.08c-1.18,6.39-7.72,9.33-13.82,9.33c-5.11,0-9.8-2.7-11.41-8.05    l5.35-2.27c0.99,3.22,3.79,4.78,6.91,4.78c3.41,0,6.86-1.28,7.48-4.21c0.81-3.79-2.79-4.78-6.82-5.4    c-5.49-0.85-10.84-3.46-9.94-10.13c1.23-6.11,7.48-9.18,13.35-9.18c5.02,0,9.47,1.85,11.03,7.15l-5.25,2.18    c-0.99-3.12-3.41-4.31-6.49-4.31c-3.27,0-6.58,1.51-7.15,4.36C34.13,12.58,37.73,13.67,41.19,14.33z"></path>
		<path fill="#000" d="M57.29,11.06c0.99-7.15,7.95-10.79,14.49-10.79c4.88,0,9.61,2.51,11.27,7.67l-5.21,2.41    c-1.18-3.03-4.02-4.59-6.96-4.59c-3.69,0-7.67,1.75-8.14,5.3l-1.75,12.88c-0.47,3.55,2.94,5.3,6.63,5.3    c2.98,0,6.25-1.52,8.24-4.55l4.59,2.27c-3.22,5.21-8.66,7.76-13.59,7.76c-6.39,0-12.31-3.6-11.31-10.79L57.29,11.06z"></path>
		<path fill="#000" d="M85.69,11.11c1.04-7.24,8.24-10.84,15.05-10.84c6.77,0,13.11,3.6,12.07,10.84l-1.85,12.73    c-1.04,7.24-8.38,10.89-15.15,10.89c-6.82,0-13.02-3.65-11.98-10.89L85.69,11.11z M89.34,23.8c-0.52,3.6,3.22,5.44,7.29,5.44    c4.12,0,8.43-1.85,8.95-5.44l1.8-12.55c0.57-3.83-3.31-5.44-7.39-5.44c-4.07,0.05-8.33,1.7-8.85,5.44L89.34,23.8z"></path>
		<path fill="#000" d="M126.27,21.29l-4.02,0l-1.8,12.97h-5.49l4.69-33.52l12.97,0c6.58,0,11.13,2.98,10.27,10.37    c-0.85,6.3-5.02,9.28-10.23,9.99l8.52,13.16l-6.67,0L126.27,21.29z M130.43,16.51c3.79,0,6.44-1.61,6.96-5.35    c0.52-3.74-1.85-5.02-5.49-4.92l-7.53,0l-1.47,10.27L130.43,16.51z"></path>
		<path fill="#000" d="M161.02,6.23l-3.88,28.03h-5.49l3.88-28.03l-10.18,0l0.8-5.54l25.85,0l-0.81,5.54L161.02,6.23z"></path>
	</g>
	<g>
		<path fill="#000" d="M164.99,28.81c1.55,0,2.86,1.23,2.86,2.83c0,1.64-1.3,2.87-2.86,2.87c-1.56,0-2.87-1.23-2.87-2.87    C162.12,30.04,163.43,28.81,164.99,28.81z M164.99,34.09c1.32,0,2.34-1.05,2.34-2.45c0-1.36-1.02-2.42-2.34-2.42    c-1.33,0-2.35,1.05-2.35,2.42C162.64,33.04,163.66,34.09,164.99,34.09z M163.88,29.99h1.29c0.79,0,1.17,0.31,1.17,0.95    c0,0.6-0.38,0.85-0.88,0.91l0.95,1.47h-0.56l-0.91-1.43h-0.55v1.43h-0.52V29.99z M164.4,31.47h0.54c0.46,0,0.88-0.02,0.88-0.55    c0-0.44-0.38-0.51-0.73-0.51l-0.69,0L164.4,31.47z"></path>
	</g>
          <title>Back to Escort Homepage</title>
</svg>
